# xmcd
#
# Track frame offsets:
#	150
#	19215
#	36556
#	53941
#	72427
#	91472
#	110379
#	127634
#	145634
#	159425
#	177537
#	193352
#	214923
#	230774
#	247134
#
# Disc length: 3539 seconds
#
# Revision: 1
# Processed by: cddbd v1.5.2PL0 Copyright (c) Steve Scherf et al.
# Submitted via: EasyCDDAExtractor 16.0.6.1
#
DISCID=e30dd10f
DTITLE=Irma Thomas - The Soul Queen Of New Orleans: 50th Anniversary Celebrati
DTITLE=on
DYEAR=2009
DGENRE=Soul
TTITLE0=Got to Bring It with You 
TTITLE1=Let It Be Me
TTITLE2=I'm Your Puppet
TTITLE3=Loving Arms
TTITLE4=There Must Be a Better World Somewhere
TTITLE5=The New Rules
TTITLE6=Another Man Done Gone
TTITLE7=What Can I Do
TTITLE8=I Count the Tears
TTITLE9=Old Records
TTITLE10=Back Water Blues
TTITLE11=In the Middle of It All
TTITLE12=Sweet Touch of Love
TTITLE13=Your Ship Has Sailed
TTITLE14=River Is Waiting
EXTD=
EXTT0=
EXTT1=
EXTT2=
EXTT3=
EXTT4=
EXTT5=
EXTT6=
EXTT7=
EXTT8=
EXTT9=
EXTT10=
EXTT11=
EXTT12=
EXTT13=
EXTT14=
PLAYORDER=
